<svg aria-hidden="true" style="position: absolute; width: 0; height: 0; overflow: hidden;" version="1.1" xmlns="http://www.w3.org/2000/svg" xmlns:xlink="http://www.w3.org/1999/xlink">
<defs>
<symbol id="icon-search" viewBox="0 0 30 30">
<title>search</title>
<path d="M29.070 25.529l-7.106-6.044c-0.735-0.661-1.52-0.965-2.155-0.935 1.677-1.965 2.691-4.514 2.691-7.3 0-6.213-5.037-11.25-11.25-11.25s-11.25 5.037-11.25 11.25 5.037 11.25 11.25 11.25c2.786 0 5.335-1.013 7.3-2.691-0.029 0.635 0.274 1.42 0.935 2.155l6.044 7.106c1.035 1.15 2.725 1.247 3.756 0.216s0.934-2.722-0.215-3.756zM11.25 18.75c-4.142 0-7.5-3.358-7.5-7.5s3.358-7.5 7.5-7.5 7.5 3.358 7.5 7.5-3.358 7.5-7.5 7.5z"></path>
</symbol>
</defs>
</svg>
